<svg width="420" height="108" viewBox="0 0 420 108" xmlns="http://www.w3.org/2000/svg">
  <defs>
    <linearGradient id="rg" x1="0" y1="0" x2="1" y2="1">
      <stop offset="0%" stop-color="#6366f1"/>
      <stop offset="100%" stop-color="#22d3ee"/>
    </linearGradient>
  </defs>
  <rect x="6" y="10" width="88" height="88" rx="22" fill="url(#rg)"/>
  <g stroke="#ffffff" stroke-width="5.5" stroke-linecap="round" fill="none">
    <path d="M 19 42 C 23 34.5, 29 34.5, 33 42 C 37 49.5, 43 49.5, 47 42" transform="rotate(16 33 42)"/>
    <path d="M 53 30 C 57 22.5, 63 22.5, 67 30 C 71 37.5, 77 37.5, 81 30" transform="rotate(16 67 30)"/>
    <path d="M 23 74 C 27 66.5, 33 66.5, 37 74 C 41 81.5, 47 81.5, 51 74" transform="rotate(16 37 74)"/>
    <path d="M 57 62 C 61 54.5, 67 54.5, 71 62 C 75 69.5, 81 69.5, 85 62" transform="rotate(16 71 62)"/>
  </g>
  <text x="112" y="72" font-family="-apple-system, BlinkMacSystemFont, 'Segoe UI', sans-serif"
        font-size="52" font-weight="700" fill="#e6ecf7">Rivera</text>
</svg>
