<svg xmlns="http://www.w3.org/2000/svg" viewBox="0 0 120 120">
  <defs>
    <linearGradient id="g" x1="0.08" y1="0.05" x2="0.95" y2="1">
      <stop offset="0" stop-color="#8b93ff"/>
      <stop offset="0.5" stop-color="#4f7bf7"/>
      <stop offset="1" stop-color="#22d3ee"/>
    </linearGradient>
    <linearGradient id="sheen" x1="0" y1="0" x2="0" y2="1">
      <stop offset="0" stop-color="#ffffff" stop-opacity="0.28"/>
      <stop offset="0.42" stop-color="#ffffff" stop-opacity="0"/>
    </linearGradient>
    <mask id="cut">
      <rect x="6" y="6" width="108" height="108" rx="32" fill="#fff"/>
      <g fill="#000">
        <rect x="41" y="32" width="14" height="56" rx="3"/>
        <path fill-rule="evenodd" d="M49 32 H70 C80.5 32 87 39 87 48.5 C87 58 80.5 65 70 65 H49 Z
                                     M55 42 H69 C74.2 42 77 45 77 48.5 C77 52 74.2 55 69 55 H55 Z"/>
        <path d="M55 58 H71 L86 88 H70 Z"/>
      </g>
    </mask>
  </defs>
  <rect x="6" y="6" width="108" height="108" rx="32" fill="url(#g)" mask="url(#cut)"/>
  <rect x="6" y="6" width="108" height="108" rx="32" fill="url(#sheen)" mask="url(#cut)"/>
</svg>
